<svg xmlns="http://www.w3.org/2000/svg" viewBox="0 0 100 100">
  <defs>
    <linearGradient id="neonGradient" x1="0%" y1="0%" x2="100%" y2="100%">
      <stop offset="0%" stop-color="#00ff80" />
      <stop offset="100%" stop-color="#00ffff" />
    </linearGradient>
    <filter id="glow">
      <feGaussianBlur stdDeviation="2.5" result="blur" />
      <feMerge>
        <feMergeNode in="blur" />
        <feMergeNode in="SourceGraphic" />
      </feMerge>
    </filter>
  </defs>
  
  <!-- Outer hexagon -->
  <polygon 
    points="50,10 85,30 85,70 50,90 15,70 15,30" 
    fill="none" 
    stroke="url(#neonGradient)" 
    stroke-width="2"
    filter="url(#glow)" 
  />
  
  <!-- Inner circuit pattern -->
  <path 
    d="M30,30 L70,30 L70,70 L30,70 Z" 
    fill="none" 
    stroke="url(#neonGradient)" 
    stroke-width="1.5"
    filter="url(#glow)" 
  />
  
  <!-- Lock symbol -->
  <rect 
    x="40" 
    y="45" 
    width="20" 
    height="25" 
    rx="2" 
    fill="url(#neonGradient)" 
    filter="url(#glow)" 
  />
  
  <path 
    d="M45,45 L45,35 Q50,25 55,35 L55,45" 
    fill="none" 
    stroke="url(#neonGradient)" 
    stroke-width="3"
    stroke-linecap="round"
    filter="url(#glow)" 
  />
  
  <!-- Circuit lines -->
  <path 
    d="M15,50 L30,50 M70,50 L85,50 M50,10 L50,25 M50,75 L50,90" 
    stroke="url(#neonGradient)" 
    stroke-width="1.5"
    filter="url(#glow)" 
  />
  
  <!-- Nodes -->
  <circle cx="30" cy="50" r="3" fill="#00ffff" filter="url(#glow)" />
  <circle cx="70" cy="50" r="3" fill="#00ffff" filter="url(#glow)" />
  <circle cx="50" cy="25" r="3" fill="#00ffff" filter="url(#glow)" />
  <circle cx="50" cy="75" r="3" fill="#00ffff" filter="url(#glow)" />
</svg>

